<?xml version="1.0" encoding="utf-8"?>
<!-- Generator: Adobe Illustrator 21.1.0, SVG Export Plug-In . SVG Version: 6.00 Build 0)  -->
<svg version="1.1" xmlns="http://www.w3.org/2000/svg" xmlns:xlink="http://www.w3.org/1999/xlink" x="0px" y="0px"
	 viewBox="0 0 323 40" style="enable-background:new 0 0 323 40;" xml:space="preserve">
<style type="text/css">
    /* Styling */
    .title { fill: #ffffff; }
    .sub-title { fill: #ffffff; opacity:0.4; }
    /* Visibility */
    .visible { display: inline; }
    .hidden { display: none; }
</style>
<g id="Docs">
    <path id="docs" class="sub-title" d="M0,30.8h3.1c2.6,0,4.3,1.7,4.3,4.4s-1.7,4.4-4.3,4.4H0V30.8z M3,38c1.7,0,2.6-1.1,2.6-2.8
        S4.7,32.4,3,32.4H1.8v5.5L3,38L3,38z M12.8,39.7c-2.4,0-4.1-1.9-4.1-4.5s1.7-4.5,4.1-4.5s4.1,1.9,4.1,4.5
        C16.9,37.8,15.2,39.7,12.8,39.7z M12.8,32.3c-1.4,0-2.3,1.2-2.3,2.9s0.9,2.9,2.3,2.9s2.3-1.2,2.3-2.9S14.2,32.3,12.8,32.3z
        M22.5,30.7c1,0,1.7,0.3,2.3,0.7v1.8c-0.7-0.6-1.4-0.9-2.2-0.9c-1.6,0-2.6,1.1-2.6,2.8s1,2.8,2.6,2.8c0.8,0,1.5-0.3,2.2-0.8v1.8
        c-0.6,0.4-1.3,0.7-2.3,0.7c-2.5,0-4.3-1.8-4.3-4.5C18.2,32.5,20,30.7,22.5,30.7z M26.6,36.1v-5.2h1.8v5c0,1.5,0.7,2.2,1.8,2.2
        s1.8-0.7,1.8-2.2v-5h1.8v5.2c0,2.4-1.4,3.6-3.6,3.6C28.1,39.7,26.6,38.5,26.6,36.1z M40.2,37.7L37.7,34v5.6h-1.8v-8.7h1.7l2.6,4.1
        l2.6-4.1h1.7v8.7h-1.8V34L40.2,37.7L40.2,37.7z M52.7,30.8v1.6h-4.1v1.9h3.7v1.5h-3.7v2.1h4.1v1.6h-5.9v-8.7
        C46.8,30.8,52.7,30.8,52.7,30.8z M61.9,39.6h-1.4l-4.1-5.8v5.8h-1.7v-8.7h1.7l3.8,5.5v-5.5h1.7V39.6z M63.4,30.8h7.4v1.6H68v7.1
        h-1.8v-7.1h-2.8C63.4,32.4,63.4,30.8,63.4,30.8z M75.9,30.8l3.3,8.7h-1.8l-0.8-2.1h-3.3l-0.8,2.1h-1.8l3.3-8.7
        C74,30.8,75.9,30.8,75.9,30.8z M73.9,35.9H76L74.9,33L73.9,35.9z M79.1,30.8h7.4v1.6h-2.8v7.1h-1.8v-7.1h-2.8
        C79.1,32.4,79.1,30.8,79.1,30.8z M89.8,39.6H88v-8.7h1.8V39.6z M95.6,39.7c-2.4,0-4.1-1.9-4.1-4.5s1.7-4.5,4.1-4.5s4.1,1.9,4.1,4.5
        C99.8,37.8,98.1,39.7,95.6,39.7z M95.6,32.3c-1.4,0-2.3,1.2-2.3,2.9s0.9,2.9,2.3,2.9s2.3-1.2,2.3-2.9S97,32.3,95.6,32.3z
        M108.8,39.6h-1.4l-4.1-5.8v5.8h-1.7v-8.7h1.7l3.8,5.5v-5.5h1.7V39.6z M118.7,30.8l3.3,8.7h-1.8l-0.8-2.1h-3.3l-0.8,2.1h-1.8
        l3.3-8.7C116.8,30.8,118.7,30.8,118.7,30.8z M116.8,35.9h2.1l-1.1-2.9L116.8,35.9z M130.8,39.6h-1.4l-4.1-5.8v5.8h-1.7v-8.7h1.7
        l3.8,5.5v-5.5h1.7V39.6z M133,30.8h3.1c2.6,0,4.3,1.7,4.3,4.4s-1.7,4.4-4.3,4.4H133V30.8z M136,38c1.7,0,2.6-1.1,2.6-2.8
        s-0.9-2.8-2.6-2.8h-1.2v5.5L136,38L136,38z M149.9,30.8l3.3,8.7h-1.8l-0.8-2.1h-3.3l-0.8,2.1h-1.8l3.3-8.7
        C148,30.8,149.9,30.8,149.9,30.8z M147.9,35.9h2.1l-1.1-2.9L147.9,35.9z M156.4,36.5v3h-1.8v-8.7h3.5c1.8,0,3.1,1,3.1,2.9
        c0,1.8-1.2,2.8-3.1,2.8H156.4z M158.1,32.4h-1.6V35h1.6c0.9,0,1.4-0.5,1.4-1.3C159.4,32.9,159,32.4,158.1,32.4z M164.6,39.6h-1.8
        v-8.7h1.8V39.6z M171.8,36.3v3.3H170v-8.7h3.6c1.8,0,3.1,1,3.1,2.8c0,1.4-0.8,2.3-2,2.6l2.3,3.4h-2l-2.2-3.3L171.8,36.3L171.8,36.3
        z M171.8,34.8h1.7c0.9,0,1.4-0.5,1.4-1.2s-0.5-1.2-1.4-1.2h-1.7V34.8z M184.3,30.8v1.6h-4.1v1.9h3.7v1.5h-3.7v2.1h4.1v1.6h-5.9
        v-8.7C178.4,30.8,184.3,30.8,184.3,30.8z M186.3,39.6v-8.7h5.8v1.6h-4v2.2h3.7v1.6h-3.7v3.3C188.1,39.6,186.3,39.6,186.3,39.6z
        M199.7,30.8v1.6h-4.1v1.9h3.7v1.5h-3.7v2.1h4.1v1.6h-5.9v-8.7C193.8,30.8,199.7,30.8,199.7,30.8z M203.5,36.3v3.3h-1.8v-8.7h3.6
        c1.8,0,3.1,1,3.1,2.8c0,1.4-0.8,2.3-2,2.6l2.3,3.4h-2l-2.2-3.3L203.5,36.3L203.5,36.3z M203.5,34.8h1.7c0.9,0,1.4-0.5,1.4-1.2
        s-0.5-1.2-1.4-1.2h-1.7V34.8z M216,30.8v1.6h-4.1v1.9h3.7v1.5h-3.7v2.1h4.1v1.6h-5.9v-8.7C210.1,30.8,216,30.8,216,30.8z
        M225.3,39.6h-1.4l-4.1-5.8v5.8H218v-8.7h1.7l3.8,5.5v-5.5h1.7v8.7H225.3z M231.4,30.7c1,0,1.7,0.3,2.3,0.7v1.8
        c-0.7-0.6-1.4-0.9-2.2-0.9c-1.6,0-2.6,1.1-2.6,2.8s1,2.8,2.6,2.8c0.8,0,1.5-0.3,2.2-0.8v1.8c-0.6,0.4-1.3,0.7-2.3,0.7
        c-2.5,0-4.3-1.8-4.3-4.5C227.1,32.5,228.9,30.7,231.4,30.7z M241.5,30.8v1.6h-4.1v1.9h3.7v1.5h-3.7v2.1h4.1v1.6h-5.9v-8.7
        C235.6,30.8,241.5,30.8,241.5,30.8z"/>
</g>
<g id="Silverlight">
    <path id="silverlight" class="title" d="M0,1.5h16.4V3H9v18.6H7.3V3H0V1.5z M21.3,20.4c1.6,0,2.9-0.4,4.1-1.4v1.6
        c-1.1,0.9-2.5,1.3-4.2,1.3c-4.1,0-6.8-2.9-6.8-7.4s2.4-7.7,6.3-7.7c3.8,0,5.8,2.9,5.8,7.1v0.6H16C16,18.4,18.3,20.4,21.3,20.4z
        M16,13.1h8.8c-0.1-2.6-1.3-4.9-4.2-4.9C18.3,8.2,16.4,10,16,13.1z M30.5,21.6h-1.6V0.3h1.6V21.6z M39.9,20.4
        c1.6,0,2.9-0.4,4.1-1.4v1.6c-1.1,0.9-2.5,1.3-4.2,1.3c-4.1,0-6.8-2.9-6.8-7.4s2.4-7.7,6.3-7.7c3.8,0,5.8,2.9,5.8,7.1v0.6H34.5
        C34.5,18.4,36.8,20.4,39.9,20.4z M34.6,13.1h8.8c-0.1-2.6-1.3-4.9-4.2-4.9C36.8,8.2,35,10,34.6,13.1z M54.2,8.6
        c-0.4-0.2-0.8-0.3-1.3-0.3c-1.8,0-3.2,1.3-3.9,3.1v10.2h-1.6V7H49v2.3c0.7-1.4,2.1-2.6,3.9-2.6c0.6,0,1,0.1,1.3,0.2V8.6z M56.8,3.7
        c-0.6,0-1.1-0.5-1.1-1.1s0.5-1.1,1.1-1.1s1.1,0.5,1.1,1.1C57.9,3.2,57.4,3.7,56.8,3.7z M57.6,21.6H56V7h1.6V21.6z M72.1,21.6h-2
        l-7.6-7.5v7.5h-1.6V0.3h1.6v13.1L69.9,7H72l-7.8,6.7L72.1,21.6z M83,13.7V1.5h1.7v12c0,4.7,2.6,6.9,6,6.9c3.5,0,6.1-2.2,6.1-6.9
        v-12h1.7v12.2c0,5.5-3.4,8.2-7.7,8.2C86.4,21.9,83,19.2,83,13.7z M103.8,21.6h-1.7V1.5h1.7V21.6z M121.3,1.8
        c-0.4-0.2-0.9-0.4-1.5-0.4c-1.5,0-2.7,1.1-2.7,3.1V7h3.4v1.4h-3.4v13.1h-1.6v-13h-2.4V7h2.4V4.4c0-2.7,1.7-4.4,4.1-4.4
        c0.6,0,1.1,0.1,1.6,0.3L121.3,1.8L121.3,1.8z M127.2,21.9c-3.8,0-6.4-3.1-6.4-7.6s2.6-7.6,6.4-7.6c3.9,0,6.5,3.1,6.5,7.6
        S131.1,21.9,127.2,21.9z M127.2,8.2c-2.9,0-4.8,2.5-4.8,6.1s1.9,6.1,4.8,6.1c2.9,0,4.8-2.5,4.8-6.1S130.1,8.2,127.2,8.2z M143,8.6
        c-0.4-0.2-0.8-0.3-1.3-0.3c-1.8,0-3.2,1.3-3.9,3.1v10.2h-1.6V7h1.6v2.3c0.7-1.4,2.1-2.6,3.9-2.6c0.6,0,1,0.1,1.3,0.2V8.6z M151,18
        c1.9,1.7,3.9,2.4,6.2,2.4c2.9,0,4.7-1.4,4.7-3.8c0-2-1.1-2.9-3.6-3.9l-2.9-1.2c-2.1-0.9-4.4-2.1-4.4-5.1c0-3.4,2.9-5.1,6.1-5.1
        c2.1,0,4.2,0.6,5.6,1.7v1.9c-1.6-1.3-3.3-2-5.6-2c-2.5,0-4.5,1.2-4.5,3.5c0,2,1.4,2.8,3.5,3.7l3.1,1.3c2.9,1.3,4.3,2.7,4.3,5.3
        c0,3.2-2.7,5.3-6.4,5.3c-2.7,0-4.9-0.9-6.2-2L151,18L151,18z M166.7,3.7c-0.6,0-1.1-0.5-1.1-1.1s0.5-1.1,1.1-1.1s1.1,0.5,1.1,1.1
        S167.3,3.7,166.7,3.7z M167.5,21.6h-1.6V7h1.6V21.6z M172.5,21.6h-1.6V0.3h1.6V21.6z M180,21.6L174.2,7h1.7l4.8,12.3L185.5,7h1.7
        l-5.8,14.5H180V21.6z M194.4,20.4c1.6,0,2.9-0.4,4.1-1.4v1.6c-1.1,0.9-2.5,1.3-4.2,1.3c-4.1,0-6.8-2.9-6.8-7.4s2.4-7.7,6.3-7.7
        c3.8,0,5.8,2.9,5.8,7.1v0.6H189C189,18.4,191.3,20.4,194.4,20.4z M189.1,13.1h8.8c-0.1-2.6-1.3-4.9-4.2-4.9
        C191.3,8.2,189.5,10,189.1,13.1z M208.7,8.6c-0.4-0.2-0.8-0.3-1.3-0.3c-1.8,0-3.2,1.3-3.9,3.1v10.2h-1.6V7h1.6v2.3
        c0.7-1.4,2.1-2.6,3.9-2.6c0.6,0,1,0.1,1.3,0.2V8.6z M212.1,21.6h-1.6V0.3h1.6V21.6z M216.2,3.7c-0.6,0-1.1-0.5-1.1-1.1
        s0.5-1.1,1.1-1.1s1.1,0.5,1.1,1.1C217.4,3.2,216.9,3.7,216.2,3.7z M217.1,21.6h-1.6V7h1.6V21.6z M230.2,19.2
        c-0.8,1.2-2.5,2.4-4.5,2.4c-4.2,0-6.3-3.5-6.3-7.4s2-7.4,6.3-7.4c2,0,3.7,1.2,4.5,2.4V7h1.6v13.5c0,4.8-3.2,6.9-6.7,6.9
        c-1.8,0-3.5-0.6-4.6-1.4v-1.9c1.4,1.3,3,1.8,4.6,1.8c2.9,0,5.1-1.7,5.1-5.3L230.2,19.2L230.2,19.2z M230.2,11.1
        c-1-1.8-2.6-2.8-4.3-2.8c-3,0-4.8,2.5-4.8,5.9c0,3.5,1.8,5.9,4.8,5.9c1.7,0,3.4-1,4.3-2.8V11.1z M235.1,0.3h1.6v9.1
        c0.9-1.4,2.6-2.6,4.7-2.6c3.3,0,5,2.1,5,5.2v9.6h-1.6v-9.4c0-2.3-1.1-3.9-3.7-3.9c-2,0-3.6,1.4-4.4,3.1v10.2h-1.6V0.3z M252.5,21.6
        h-1.6V8.5h-3.1V7h3.1V3.3h1.6V7h3.4v1.4h-3.4V21.6z M75.9,8.2c-1.2,0-2.1-0.9-2.1-2.1s1-2.1,2.1-2.1C77.1,3.9,78,4.8,78,6
        C78,7.3,77.1,8.2,75.9,8.2 M75.9,4.3c-1,0-1.7,0.7-1.7,1.8c0,1,0.8,1.8,1.7,1.8c1,0,1.7-0.7,1.7-1.8C77.7,5,76.9,4.3,75.9,4.3
        M75.7,6.4v0.7h-0.6V4.9h1.1c0.5,0,0.8,0.3,0.8,0.8c0,0.4-0.2,0.6-0.4,0.7L77,7.2h-0.7l-0.4-0.7L75.7,6.4L75.7,6.4z M76,5.4h-0.4
        v0.5H76c0.2,0,0.3-0.1,0.3-0.2C76.3,5.5,76.2,5.4,76,5.4"/>
</g>
</svg>